<svg xmlns="http://www.w3.org/2000/svg" width="900" height="463" viewBox="0 0 900 463" role="img" aria-labelledby="title desc">
<title id="title">Variação em 7 dias: Investimentos EA FC: Liga Portugal em 21/07 — PC</title>
<desc id="desc">Gráfico gerado a partir da tabela publicada neste artigo.</desc>
<rect width="100%" height="100%" rx="20" fill="#0f172a"/>
<text x="28" y="42" fill="#f8fafc" font-family="system-ui,sans-serif" font-size="23" font-weight="700">Variação em 7 dias</text>
<text x="28" y="70" fill="#94a3b8" font-family="system-ui,sans-serif" font-size="15">Dados do recorte publicado no artigo</text>
<text x="28" y="117" fill="#e2e8f0" font-family="system-ui,sans-serif" font-size="16">Rodrigo Mora</text>
<rect x="285" y="95" width="480" height="28" rx="7" fill="#22c55e"/>
<text x="775" y="116" fill="#f8fafc" font-family="system-ui,sans-serif" font-size="15" font-weight="700">+39.4%</text>
<text x="28" y="175" fill="#e2e8f0" font-family="system-ui,sans-serif" font-size="16">Rodrigo Zalazar</text>
<rect x="285" y="153" width="374" height="28" rx="7" fill="#22c55e"/>
<text x="669" y="174" fill="#f8fafc" font-family="system-ui,sans-serif" font-size="15" font-weight="700">+30.7%</text>
<text x="28" y="233" fill="#e2e8f0" font-family="system-ui,sans-serif" font-size="16">Quaresma</text>
<rect x="285" y="211" width="318" height="28" rx="7" fill="#22c55e"/>
<text x="613" y="232" fill="#f8fafc" font-family="system-ui,sans-serif" font-size="15" font-weight="700">+26.1%</text>
<text x="28" y="291" fill="#e2e8f0" font-family="system-ui,sans-serif" font-size="16">Jesús Ramírez</text>
<rect x="285" y="269" width="183" height="28" rx="7" fill="#22c55e"/>
<text x="478" y="290" fill="#f8fafc" font-family="system-ui,sans-serif" font-size="15" font-weight="700">+15.0%</text>
<text x="28" y="349" fill="#e2e8f0" font-family="system-ui,sans-serif" font-size="16">Alexander Bah</text>
<rect x="285" y="327" width="108" height="28" rx="7" fill="#22c55e"/>
<text x="403" y="348" fill="#f8fafc" font-family="system-ui,sans-serif" font-size="15" font-weight="700">+8.9%</text>
<text x="28" y="407" fill="#e2e8f0" font-family="system-ui,sans-serif" font-size="16">João Moutinho</text>
<rect x="285" y="385" width="85" height="28" rx="7" fill="#22c55e"/>
<text x="380" y="406" fill="#f8fafc" font-family="system-ui,sans-serif" font-size="15" font-weight="700">+7.0%</text>
</svg>
