<svg xmlns="http://www.w3.org/2000/svg" width="900" height="463" viewBox="0 0 900 463" role="img" aria-labelledby="title desc">
<title id="title">Variação em 7 dias: Investimentos EA FC: Liga Portugal em 21/07 — Console (PS)</title>
<desc id="desc">Gráfico gerado a partir da tabela publicada neste artigo.</desc>
<rect width="100%" height="100%" rx="20" fill="#0f172a"/>
<text x="28" y="42" fill="#f8fafc" font-family="system-ui,sans-serif" font-size="23" font-weight="700">Variação em 7 dias</text>
<text x="28" y="70" fill="#94a3b8" font-family="system-ui,sans-serif" font-size="15">Dados do recorte publicado no artigo</text>
<text x="28" y="117" fill="#e2e8f0" font-family="system-ui,sans-serif" font-size="16">Vangelis Pavlidis</text>
<rect x="285" y="95" width="480" height="28" rx="7" fill="#22c55e"/>
<text x="775" y="116" fill="#f8fafc" font-family="system-ui,sans-serif" font-size="15" font-weight="700">+90.0%</text>
<text x="28" y="175" fill="#e2e8f0" font-family="system-ui,sans-serif" font-size="16">Alexander Bah</text>
<rect x="285" y="153" width="213" height="28" rx="7" fill="#22c55e"/>
<text x="508" y="174" fill="#f8fafc" font-family="system-ui,sans-serif" font-size="15" font-weight="700">+40.0%</text>
<text x="28" y="233" fill="#e2e8f0" font-family="system-ui,sans-serif" font-size="16">Matheus Dias</text>
<rect x="285" y="211" width="133" height="28" rx="7" fill="#22c55e"/>
<text x="428" y="232" fill="#f8fafc" font-family="system-ui,sans-serif" font-size="15" font-weight="700">+25.0%</text>
<text x="28" y="291" fill="#e2e8f0" font-family="system-ui,sans-serif" font-size="16">Yanis Begraoui</text>
<rect x="285" y="269" width="101" height="28" rx="7" fill="#22c55e"/>
<text x="396" y="290" fill="#f8fafc" font-family="system-ui,sans-serif" font-size="15" font-weight="700">+19.0%</text>
<text x="28" y="349" fill="#e2e8f0" font-family="system-ui,sans-serif" font-size="16">Santi García</text>
<rect x="285" y="327" width="90" height="28" rx="7" fill="#22c55e"/>
<text x="385" y="348" fill="#f8fafc" font-family="system-ui,sans-serif" font-size="15" font-weight="700">+16.9%</text>
<text x="28" y="407" fill="#e2e8f0" font-family="system-ui,sans-serif" font-size="16">Florian Grillitsch</text>
<rect x="285" y="385" width="67" height="28" rx="7" fill="#22c55e"/>
<text x="362" y="406" fill="#f8fafc" font-family="system-ui,sans-serif" font-size="15" font-weight="700">+12.5%</text>
</svg>
