<svg xmlns="http://www.w3.org/2000/svg" width="900" height="463" viewBox="0 0 900 463" role="img" aria-labelledby="title desc">
<title id="title">Variação em 24h: Liga Portugal no EA FC em 31/05: altas e baixas — PS</title>
<desc id="desc">Gráfico gerado a partir da tabela publicada neste artigo.</desc>
<rect width="100%" height="100%" rx="20" fill="#0f172a"/>
<text x="28" y="42" fill="#f8fafc" font-family="system-ui,sans-serif" font-size="23" font-weight="700">Variação em 24h</text>
<text x="28" y="70" fill="#94a3b8" font-family="system-ui,sans-serif" font-size="15">Dados do recorte publicado no artigo</text>
<text x="28" y="117" fill="#e2e8f0" font-family="system-ui,sans-serif" font-size="16">Geovany Quenda</text>
<rect x="285" y="95" width="480" height="28" rx="7" fill="#22c55e"/>
<text x="775" y="116" fill="#f8fafc" font-family="system-ui,sans-serif" font-size="15" font-weight="700">+29.6%</text>
<text x="28" y="175" fill="#e2e8f0" font-family="system-ui,sans-serif" font-size="16">Richard Ríos</text>
<rect x="285" y="153" width="396" height="28" rx="7" fill="#22c55e"/>
<text x="691" y="174" fill="#f8fafc" font-family="system-ui,sans-serif" font-size="15" font-weight="700">+24.4%</text>
<text x="28" y="233" fill="#e2e8f0" font-family="system-ui,sans-serif" font-size="16">Eduardo Quaresma</text>
<rect x="285" y="211" width="396" height="28" rx="7" fill="#22c55e"/>
<text x="691" y="232" fill="#f8fafc" font-family="system-ui,sans-serif" font-size="15" font-weight="700">+24.4%</text>
<text x="28" y="291" fill="#e2e8f0" font-family="system-ui,sans-serif" font-size="16">Ricardo Carvalho</text>
<rect x="285" y="269" width="360" height="28" rx="7" fill="#22c55e"/>
<text x="655" y="290" fill="#f8fafc" font-family="system-ui,sans-serif" font-size="15" font-weight="700">+22.2%</text>
<text x="28" y="349" fill="#e2e8f0" font-family="system-ui,sans-serif" font-size="16">Ivan Cavaleiro</text>
<rect x="285" y="327" width="250" height="28" rx="7" fill="#22c55e"/>
<text x="545" y="348" fill="#f8fafc" font-family="system-ui,sans-serif" font-size="15" font-weight="700">+15.4%</text>
<text x="28" y="407" fill="#e2e8f0" font-family="system-ui,sans-serif" font-size="16">Ricardo Carvalho</text>
<rect x="285" y="385" width="154" height="28" rx="7" fill="#22c55e"/>
<text x="449" y="406" fill="#f8fafc" font-family="system-ui,sans-serif" font-size="15" font-weight="700">+9.5%</text>
</svg>
